<?xml version="1.0" encoding="utf-8"?>
<!-- Generator: Adobe Illustrator 23.0.3, SVG Export Plug-In . SVG Version: 6.00 Build 0)  -->
<svg version="1.1" id="Capa_1" xmlns="http://www.w3.org/2000/svg" xmlns:xlink="http://www.w3.org/1999/xlink" x="0px" y="0px"
	 viewBox="0 0 426.1 426.1" style="enable-background:new 0 0 426.1 426.1;" xml:space="preserve">
<style type="text/css">
	.st0{fill:#FFFFFF;}
</style>
<g>
	<path class="st0" d="M209.4,113c-60.8,7.4-25.6,107.7,11.6,95.1c15.2-0.6,25.6-38.3,25.9-49.2C247.8,137.1,235.2,109.9,209.4,113z"
		/>
	<path class="st0" d="M250.7,208.8c-0.9,0-1.5,0.5-2.3,0.9c-2.4,0.2-4.7,1.1-6.2,3.4c-16.9,25.3-43.4,22.7-60.7-1
		c-2.1-2.8-5.3-2.8-7.5-1.2c-19.6-4.9-39,17.6-47.3,33c-12.8,23.6-16.1,56.9-11,82.9c0.3,1.3,1,2.4,2,3.1c-0.1,2,0.7,3.9,3.3,4.4
		c56.6,9.5,118.6,6.8,175.6,2.6c4.2-0.3,6.4-3.5,6.7-6.7c1.3-0.8,2.3-2,2.8-3.6C319.2,286.3,305.4,207.9,250.7,208.8z"/>
	<path class="st0" d="M383.9,93.2c-0.1-0.2-0.1-0.3-0.2-0.5c-11-20.2-32.7-36.9-48.6-53.3C322.7,26.6,308.5,4.4,289.9,2
		c-0.1,0-0.1,0.1-0.2,0.1c-1.3-1.3-3-2.2-5.2-2.1C209.3,2.2,133.3,3.6,58.2,7.5c-1.6,0.1-2.8,0.6-3.9,1.3c-2.5-2.5-7.4-2.2-8.4,2
		C31.5,71.6,38.6,137,39.7,199c1.3,68.5-2.4,139.2,5.5,207.2c0.2,2,1.1,3.5,2.3,4.7c0.2,2.8,2.2,5.5,5.9,6
		c101,12.2,214.8,11.8,316,1.1c1.1-0.1,2-0.4,2.8-0.9c2.3,0.4,4.6-0.6,5-3.7c14.2-101.9,7.5-209.6,11.9-312.4
		C389.3,96.8,386.9,94.2,383.9,93.2z M366.3,404.7c-99.6-5.7-206.2-6.6-306-0.5c2.4-127-1.3-255.8-4.4-382.8
		c0.7,0.3,1.4,0.6,2.3,0.6c74.1,7,154.5,3.4,228.2-6.8c-1.4,18-1.6,36.1-1.3,54.2c0.2,10.2-3.5,29.9,3.1,38.7
		c6.3,8.3,22.3,8.5,31.7,9.4c9.5,0.9,19,1.1,28.5,0.3c3.3-0.3,7.2,0,10.5-0.6c4,0.7,8,1.9,11.9,1.9
		C366.1,212.9,356.3,311.6,366.3,404.7z"/>
</g>
</svg>
