<svg xmlns="http://www.w3.org/2000/svg" width="32" height="32" viewBox="0 0 32 32">
  <path id="graph" d="M8.114,20.56a4.264,4.264,0,1,0,1.7,6.21l4.03,2.018a4.265,4.265,0,1,0,7.691-1.442L27.2,21.423a4.266,4.266,0,1,0-.076-6.79L21.366,8.879A4.268,4.268,0,1,0,13.842,7.21L10.06,8.588a4.268,4.268,0,1,0-2.086,5.853l1.963,3.3ZM6.267,27.6a3.2,3.2,0,1,1,3.2-3.2A3.2,3.2,0,0,1,6.267,27.6Zm4.021-1.786a4.238,4.238,0,0,0-1.277-4.676l1.534-2.369,4.625,7.782a4.282,4.282,0,0,0-.957,1.228ZM18,10.533a4.242,4.242,0,0,0,2.612-.9l5.755,5.755a4.248,4.248,0,0,0-.752,1.514l-3.35-.461c0-.014,0-.028,0-.042a4.265,4.265,0,0,0-7.812-2.37l-.636-.318,2.335-3.606A4.231,4.231,0,0,0,18,10.533Zm.533,14.97V20.629A4.272,4.272,0,0,0,22.118,17.5l3.35.461c0,.014,0,.028,0,.042a4.243,4.243,0,0,0,.957,2.688l-5.6,5.855A4.248,4.248,0,0,0,18.533,25.5ZM18,13.2a3.2,3.2,0,1,1-3.2,3.2A3.2,3.2,0,0,1,18,13.2Zm-4.021,1.786a4.251,4.251,0,0,0,3.487,5.644V25.5a4.232,4.232,0,0,0-1.418.439l-4.858-8.174,2.043-3.155ZM18,32.933a3.2,3.2,0,1,1,3.2-3.2A3.2,3.2,0,0,1,18,32.933ZM29.733,14.8a3.2,3.2,0,1,1-3.2,3.2A3.2,3.2,0,0,1,29.733,14.8ZM18,3.067a3.2,3.2,0,1,1-3.2,3.2A3.2,3.2,0,0,1,18,3.067ZM14.207,8.212a4.3,4.3,0,0,0,1.049,1.317l-2.4,3.7-2.571-1.285a4.171,4.171,0,0,0,.137-2.357ZM3.067,10.533a3.2,3.2,0,1,1,3.2,3.2A3.2,3.2,0,0,1,3.067,10.533Zm5.821,3.359a4.3,4.3,0,0,0,.924-.99l2.462,1.231-1.691,2.612Z" transform="translate(-2 -2)" fill="#ffa880"/>
</svg>
