<svg xmlns="http://www.w3.org/2000/svg" width="24" height="20.571" viewBox="0 0 24 20.571"><g transform="translate(0 -36.547)"><g transform="translate(0 36.547)"><path d="M18.429,83.375h-.857a.413.413,0,0,0-.429.429V88.09A2.148,2.148,0,0,1,15,90.232H3.857A2.064,2.064,0,0,1,2.344,89.6a2.063,2.063,0,0,1-.629-1.513V76.947a2.063,2.063,0,0,1,.629-1.513A2.063,2.063,0,0,1,3.857,74.8h9.428a.412.412,0,0,0,.429-.429v-.857a.412.412,0,0,0-.429-.428H3.857a3.716,3.716,0,0,0-2.726,1.132A3.715,3.715,0,0,0,0,76.947V88.09a3.715,3.715,0,0,0,1.132,2.725,3.716,3.716,0,0,0,2.726,1.132H15a3.864,3.864,0,0,0,3.857-3.857V83.8a.413.413,0,0,0-.429-.429Z" transform="translate(0 -71.376)" fill="#ffa880"/><path d="M210.139,36.8a.824.824,0,0,0-.6-.254H202.68a.852.852,0,0,0-.6,1.46l2.357,2.357L195.7,49.1a.421.421,0,0,0,0,.616l1.527,1.527a.422.422,0,0,0,.616,0l8.732-8.732,2.357,2.357a.857.857,0,0,0,1.46-.6V37.4A.824.824,0,0,0,210.139,36.8Z" transform="translate(-186.394 -36.547)" fill="#ffa880"/></g></g></svg>