<svg id="puzzle" xmlns="http://www.w3.org/2000/svg" width="32" height="32" viewBox="0 0 32 32">
  <g id="Group_6" data-name="Group 6" transform="translate(5.333 5.333)">
    <g id="Group_5" data-name="Group 5">
      <path id="Path_1" data-name="Path 1" d="M106.133,80h-12.8a.533.533,0,0,0-.533.533v4.8a.533.533,0,0,0,.7.506l.67-.223a1.387,1.387,0,1,1,0,2.636l-.67-.223a.533.533,0,0,0-.7.506V92.8H88.533a.533.533,0,0,0-.506.7l.223.67a1.387,1.387,0,1,1-2.636,0l.223-.67a.533.533,0,0,0-.506-.7h-4.8a.533.533,0,0,0-.533.533v12.8a.533.533,0,0,0,.533.533h25.6a.533.533,0,0,0,.533-.533v-25.6A.533.533,0,0,0,106.133,80ZM92.827,101.165a.534.534,0,0,0-.027.168V105.6H81.067V93.867h3.527a2.453,2.453,0,1,0,4.679,0H92.8v4.267a.533.533,0,0,0,.7.506l.67-.223a1.387,1.387,0,1,1,0,2.636l-.67-.223A.533.533,0,0,0,92.827,101.165ZM105.6,105.6H93.867v-3.527a2.453,2.453,0,1,0,0-4.679V93.867h4.267a.533.533,0,0,0,.506-.7l-.223-.67a1.387,1.387,0,1,1,2.636,0l-.223.67a.533.533,0,0,0,.506.7H105.6V105.6Zm0-12.8h-3.527a2.453,2.453,0,1,0-4.679,0H93.867V89.273a2.458,2.458,0,1,0,0-4.679V81.067H105.6Z" transform="translate(-80 -80)" fill="#ffa880"/>
    </g>
  </g>
  <g id="Group_8" data-name="Group 8" transform="translate(0 0)">
    <g id="Group_7" data-name="Group 7">
      <path id="Path_2" data-name="Path 2" d="M15.342,4.594a2.453,2.453,0,0,0-1.476,0V.533A.533.533,0,0,0,13.333,0H.533A.533.533,0,0,0,0,.533v12.8a.533.533,0,0,0,.533.533h4.06a2.453,2.453,0,1,0,4.679,0h4.06a.533.533,0,0,0,.533-.533V9.273a2.453,2.453,0,0,0,1.476-4.679Zm-.307,3.658a1.387,1.387,0,0,1-.863,0l-.67-.223a.533.533,0,0,0-.7.506V12.8H8.533a.533.533,0,0,0-.506.7l.223.67a1.387,1.387,0,1,1-2.636,0l.223-.67a.533.533,0,0,0-.506-.7H1.067V1.067H12.8V5.333a.533.533,0,0,0,.7.506l.67-.223a1.387,1.387,0,0,1,.863,2.636Z" transform="translate(0 0)" fill="#ffa880"/>
    </g>
  </g>
</svg>
